<svg xmlns="http://www.w3.org/2000/svg" viewBox="0 0 512 512">
  <defs>
    <linearGradient id="g" x1="0" y1="0" x2="1" y2="1">
      <stop offset="0%" stop-color="#6aa4ff"/>
      <stop offset="100%" stop-color="#51c28e"/>
    </linearGradient>
  </defs>
  <rect x="32" y="32" width="448" height="448" rx="96" fill="#0f1216"/>
  <rect x="48" y="48" width="416" height="416" rx="88" fill="#151a21" stroke="#223041" stroke-width="4"/>
  <g fill="url(#g)">
    <path d="M136 340V172h92q40 0 64 20t24 56q0 38-24.5 60T232 330h-56v10h-40Zm96-56q24 0 38-12.5t14-33.5q0-20-14-32.5T232 192h-56v92h56Z"/>
    <path d="M292 172h44l52 86 52-86h44l-76 124v44h-40v-44l-76-124Z"/>
  </g>
</svg>
